<mxfile host="app.diagrams.net" modified="2024-01-26T07:17:25.452Z" agent="Mozilla/5.0 (Windows NT 10.0; Win64; x64) AppleWebKit/537.36 (KHTML, like Gecko) Chrome/120.0.0.0 Safari/537.36" etag="Y9d4c405Ka_R-TwbG2h3" version="22.1.16" type="device" pages="4">
  <diagram name="Automation" id="KjBXXOIVM8_h_UiZnonV">
    <mxGraphModel dx="1674" dy="784" grid="1" gridSize="10" guides="1" tooltips="1" connect="1" arrows="1" fold="1" page="1" pageScale="1" pageWidth="827" pageHeight="1169" math="0" shadow="0">
      <root>
        <mxCell id="0" />
        <mxCell id="1" parent="0" />
        <mxCell id="1jI0mvlAZYk29SeY2EHj-32" value="" style="rounded=1;arcSize=10;dashed=1;strokeColor=#F59D56;fillColor=none;gradientColor=none;dashPattern=8 4;strokeWidth=2;" parent="1" vertex="1">
          <mxGeometry x="80" y="280" width="330" height="450" as="geometry" />
        </mxCell>
        <mxCell id="1jI0mvlAZYk29SeY2EHj-33" value="" style="rounded=1;arcSize=10;dashed=1;strokeColor=#F59D56;fillColor=none;gradientColor=none;dashPattern=8 4;strokeWidth=2;" parent="1" vertex="1">
          <mxGeometry x="430" y="280" width="280" height="450" as="geometry" />
        </mxCell>
        <mxCell id="1jI0mvlAZYk29SeY2EHj-1" value="R2" style="sketch=0;outlineConnect=0;fontColor=#232F3E;gradientColor=none;fillColor=#8C4FFF;strokeColor=none;dashed=0;verticalLabelPosition=bottom;verticalAlign=top;align=center;html=1;fontSize=12;fontStyle=0;aspect=fixed;pointerEvents=1;shape=mxgraph.aws4.customer_gateway;" parent="1" vertex="1">
          <mxGeometry x="180" y="390" width="50" height="50" as="geometry" />
        </mxCell>
        <mxCell id="1jI0mvlAZYk29SeY2EHj-2" value="SW1" style="sketch=0;points=[[0.015,0.015,0],[0.985,0.015,0],[0.985,0.985,0],[0.015,0.985,0],[0.25,0,0],[0.5,0,0],[0.75,0,0],[1,0.25,0],[1,0.5,0],[1,0.75,0],[0.75,1,0],[0.5,1,0],[0.25,1,0],[0,0.75,0],[0,0.5,0],[0,0.25,0]];verticalLabelPosition=bottom;html=1;verticalAlign=top;aspect=fixed;align=center;pointerEvents=1;shape=mxgraph.cisco19.rect;prIcon=l2_switch;fillColor=#FAFAFA;strokeColor=#005073;" parent="1" vertex="1">
          <mxGeometry x="210" y="520" width="40" height="40" as="geometry" />
        </mxCell>
        <mxCell id="1jI0mvlAZYk29SeY2EHj-3" value="Automation Server" style="shadow=0;dashed=0;html=1;strokeColor=none;fillColor=#4495D1;labelPosition=center;verticalLabelPosition=top;verticalAlign=bottom;align=center;outlineConnect=0;shape=mxgraph.veeam.linux_repository;" parent="1" vertex="1">
          <mxGeometry x="510" y="90" width="48.8" height="44.8" as="geometry" />
        </mxCell>
        <mxCell id="1jI0mvlAZYk29SeY2EHj-4" value="R3" style="sketch=0;outlineConnect=0;fontColor=#232F3E;gradientColor=none;fillColor=#8C4FFF;strokeColor=none;dashed=0;verticalLabelPosition=bottom;verticalAlign=top;align=center;html=1;fontSize=12;fontStyle=0;aspect=fixed;pointerEvents=1;shape=mxgraph.aws4.customer_gateway;" parent="1" vertex="1">
          <mxGeometry x="314" y="390" width="50" height="50" as="geometry" />
        </mxCell>
        <mxCell id="1jI0mvlAZYk29SeY2EHj-5" value="SW4" style="sketch=0;points=[[0.015,0.015,0],[0.985,0.015,0],[0.985,0.985,0],[0.015,0.985,0],[0.25,0,0],[0.5,0,0],[0.75,0,0],[1,0.25,0],[1,0.5,0],[1,0.75,0],[0.75,1,0],[0.5,1,0],[0.25,1,0],[0,0.75,0],[0,0.5,0],[0,0.25,0]];verticalLabelPosition=bottom;html=1;verticalAlign=top;aspect=fixed;align=center;pointerEvents=1;shape=mxgraph.cisco19.rect;prIcon=l2_switch;fillColor=#FAFAFA;strokeColor=#005073;" parent="1" vertex="1">
          <mxGeometry x="563.8" y="520" width="40" height="40" as="geometry" />
        </mxCell>
        <mxCell id="1jI0mvlAZYk29SeY2EHj-6" value="R1" style="sketch=0;outlineConnect=0;fontColor=#232F3E;gradientColor=none;fillColor=#8C4FFF;strokeColor=none;dashed=0;verticalLabelPosition=bottom;verticalAlign=top;align=center;html=1;fontSize=12;fontStyle=0;aspect=fixed;pointerEvents=1;shape=mxgraph.aws4.customer_gateway;" parent="1" vertex="1">
          <mxGeometry x="250" y="300" width="50" height="50" as="geometry" />
        </mxCell>
        <mxCell id="1jI0mvlAZYk29SeY2EHj-7" value="R4" style="sketch=0;outlineConnect=0;fontColor=#232F3E;gradientColor=none;fillColor=#8C4FFF;strokeColor=none;dashed=0;verticalLabelPosition=bottom;verticalAlign=top;align=center;html=1;fontSize=12;fontStyle=0;aspect=fixed;pointerEvents=1;shape=mxgraph.aws4.customer_gateway;" parent="1" vertex="1">
          <mxGeometry x="558.8" y="300" width="50" height="50" as="geometry" />
        </mxCell>
        <mxCell id="1jI0mvlAZYk29SeY2EHj-8" value="SW2" style="sketch=0;points=[[0.015,0.015,0],[0.985,0.015,0],[0.985,0.985,0],[0.015,0.985,0],[0.25,0,0],[0.5,0,0],[0.75,0,0],[1,0.25,0],[1,0.5,0],[1,0.75,0],[0.75,1,0],[0.5,1,0],[0.25,1,0],[0,0.75,0],[0,0.5,0],[0,0.25,0]];verticalLabelPosition=bottom;html=1;verticalAlign=top;aspect=fixed;align=center;pointerEvents=1;shape=mxgraph.cisco19.rect;prIcon=l2_switch;fillColor=#FAFAFA;strokeColor=#005073;" parent="1" vertex="1">
          <mxGeometry x="300" y="520" width="40" height="40" as="geometry" />
        </mxCell>
        <mxCell id="1jI0mvlAZYk29SeY2EHj-9" value="" style="endArrow=none;html=1;rounded=0;entryX=0.5;entryY=0;entryDx=0;entryDy=0;entryPerimeter=0;" parent="1" source="1jI0mvlAZYk29SeY2EHj-1" target="1jI0mvlAZYk29SeY2EHj-2" edge="1">
          <mxGeometry width="50" height="50" relative="1" as="geometry">
            <mxPoint x="510" y="430" as="sourcePoint" />
            <mxPoint x="560" y="380" as="targetPoint" />
          </mxGeometry>
        </mxCell>
        <mxCell id="1jI0mvlAZYk29SeY2EHj-10" value="" style="endArrow=none;html=1;rounded=0;entryX=0.5;entryY=0;entryDx=0;entryDy=0;entryPerimeter=0;" parent="1" source="1jI0mvlAZYk29SeY2EHj-4" target="1jI0mvlAZYk29SeY2EHj-8" edge="1">
          <mxGeometry width="50" height="50" relative="1" as="geometry">
            <mxPoint x="221" y="450" as="sourcePoint" />
            <mxPoint x="240" y="530" as="targetPoint" />
          </mxGeometry>
        </mxCell>
        <mxCell id="1jI0mvlAZYk29SeY2EHj-11" value="" style="endArrow=none;html=1;rounded=0;" parent="1" source="1jI0mvlAZYk29SeY2EHj-6" target="1jI0mvlAZYk29SeY2EHj-1" edge="1">
          <mxGeometry width="50" height="50" relative="1" as="geometry">
            <mxPoint x="231" y="460" as="sourcePoint" />
            <mxPoint x="250" y="540" as="targetPoint" />
          </mxGeometry>
        </mxCell>
        <mxCell id="1jI0mvlAZYk29SeY2EHj-12" value="" style="endArrow=none;html=1;rounded=0;" parent="1" source="1jI0mvlAZYk29SeY2EHj-6" target="1jI0mvlAZYk29SeY2EHj-4" edge="1">
          <mxGeometry width="50" height="50" relative="1" as="geometry">
            <mxPoint x="266" y="360" as="sourcePoint" />
            <mxPoint x="234" y="400" as="targetPoint" />
          </mxGeometry>
        </mxCell>
        <mxCell id="1jI0mvlAZYk29SeY2EHj-13" value="SW3" style="sketch=0;points=[[0.015,0.015,0],[0.985,0.015,0],[0.985,0.985,0],[0.015,0.985,0],[0.25,0,0],[0.5,0,0],[0.75,0,0],[1,0.25,0],[1,0.5,0],[1,0.75,0],[0.75,1,0],[0.5,1,0],[0.25,1,0],[0,0.75,0],[0,0.5,0],[0,0.25,0]];verticalLabelPosition=bottom;html=1;verticalAlign=top;aspect=fixed;align=center;pointerEvents=1;shape=mxgraph.cisco19.rect;prIcon=l2_switch;fillColor=#FAFAFA;strokeColor=#005073;" parent="1" vertex="1">
          <mxGeometry x="254.99999999999994" y="620" width="40" height="40" as="geometry" />
        </mxCell>
        <mxCell id="1jI0mvlAZYk29SeY2EHj-14" value="" style="endArrow=none;html=1;rounded=0;entryX=0.5;entryY=1;entryDx=0;entryDy=0;entryPerimeter=0;exitX=0.5;exitY=0;exitDx=0;exitDy=0;exitPerimeter=0;" parent="1" source="1jI0mvlAZYk29SeY2EHj-13" target="1jI0mvlAZYk29SeY2EHj-2" edge="1">
          <mxGeometry width="50" height="50" relative="1" as="geometry">
            <mxPoint x="266" y="360" as="sourcePoint" />
            <mxPoint x="234" y="400" as="targetPoint" />
          </mxGeometry>
        </mxCell>
        <mxCell id="1jI0mvlAZYk29SeY2EHj-15" value="" style="endArrow=none;html=1;rounded=0;entryX=0.5;entryY=1;entryDx=0;entryDy=0;entryPerimeter=0;exitX=0.5;exitY=0;exitDx=0;exitDy=0;exitPerimeter=0;" parent="1" source="1jI0mvlAZYk29SeY2EHj-13" target="1jI0mvlAZYk29SeY2EHj-8" edge="1">
          <mxGeometry width="50" height="50" relative="1" as="geometry">
            <mxPoint x="285" y="630" as="sourcePoint" />
            <mxPoint x="240" y="570" as="targetPoint" />
          </mxGeometry>
        </mxCell>
        <mxCell id="1jI0mvlAZYk29SeY2EHj-16" value="" style="endArrow=none;html=1;rounded=0;" parent="1" source="1jI0mvlAZYk29SeY2EHj-6" target="1jI0mvlAZYk29SeY2EHj-7" edge="1">
          <mxGeometry width="50" height="50" relative="1" as="geometry">
            <mxPoint x="266" y="360" as="sourcePoint" />
            <mxPoint x="234" y="400" as="targetPoint" />
          </mxGeometry>
        </mxCell>
        <mxCell id="chggU_eD0DDKS6iOH96v-1" value="eBGP" style="edgeLabel;html=1;align=center;verticalAlign=middle;resizable=0;points=[];" parent="1jI0mvlAZYk29SeY2EHj-16" connectable="0" vertex="1">
          <mxGeometry x="-0.0791" y="-2" relative="1" as="geometry">
            <mxPoint as="offset" />
          </mxGeometry>
        </mxCell>
        <mxCell id="1jI0mvlAZYk29SeY2EHj-17" value="" style="endArrow=none;html=1;rounded=0;" parent="1" source="1jI0mvlAZYk29SeY2EHj-7" target="1jI0mvlAZYk29SeY2EHj-5" edge="1">
          <mxGeometry width="50" height="50" relative="1" as="geometry">
            <mxPoint x="344" y="450" as="sourcePoint" />
            <mxPoint x="330" y="530" as="targetPoint" />
          </mxGeometry>
        </mxCell>
        <mxCell id="1jI0mvlAZYk29SeY2EHj-18" value="&lt;div&gt;DHCP&lt;/div&gt;" style="shadow=0;dashed=0;html=1;strokeColor=none;fillColor=#4495D1;labelPosition=center;verticalLabelPosition=bottom;verticalAlign=top;align=center;outlineConnect=0;shape=mxgraph.veeam.linux_repository;" parent="1" vertex="1">
          <mxGeometry x="539.9999999999999" y="600" width="53.6" height="49.6" as="geometry" />
        </mxCell>
        <mxCell id="1jI0mvlAZYk29SeY2EHj-19" value="OOB" style="sketch=0;points=[[0.015,0.015,0],[0.985,0.015,0],[0.985,0.985,0],[0.015,0.985,0],[0.25,0,0],[0.5,0,0],[0.75,0,0],[1,0.25,0],[1,0.5,0],[1,0.75,0],[0.75,1,0],[0.5,1,0],[0.25,1,0],[0,0.75,0],[0,0.5,0],[0,0.25,0]];verticalLabelPosition=top;html=1;verticalAlign=bottom;aspect=fixed;align=center;pointerEvents=1;shape=mxgraph.cisco19.rect;prIcon=l2_switch;fillColor=#FAFAFA;strokeColor=#005073;labelPosition=center;" parent="1" vertex="1">
          <mxGeometry x="414" y="180" width="40" height="40" as="geometry" />
        </mxCell>
        <mxCell id="1jI0mvlAZYk29SeY2EHj-21" value="" style="endArrow=none;dashed=1;html=1;rounded=0;entryX=0.25;entryY=1;entryDx=0;entryDy=0;entryPerimeter=0;" parent="1" source="1jI0mvlAZYk29SeY2EHj-6" target="1jI0mvlAZYk29SeY2EHj-19" edge="1">
          <mxGeometry width="50" height="50" relative="1" as="geometry">
            <mxPoint x="200" y="210" as="sourcePoint" />
            <mxPoint x="250" y="160" as="targetPoint" />
          </mxGeometry>
        </mxCell>
        <mxCell id="1jI0mvlAZYk29SeY2EHj-22" value="" style="endArrow=none;dashed=1;html=1;rounded=0;entryX=0.25;entryY=1;entryDx=0;entryDy=0;entryPerimeter=0;" parent="1" source="1jI0mvlAZYk29SeY2EHj-1" target="1jI0mvlAZYk29SeY2EHj-19" edge="1">
          <mxGeometry width="50" height="50" relative="1" as="geometry">
            <mxPoint x="310" y="313" as="sourcePoint" />
            <mxPoint x="424" y="210" as="targetPoint" />
          </mxGeometry>
        </mxCell>
        <mxCell id="1jI0mvlAZYk29SeY2EHj-23" value="" style="endArrow=none;dashed=1;html=1;rounded=0;entryX=0.5;entryY=1;entryDx=0;entryDy=0;entryPerimeter=0;" parent="1" source="1jI0mvlAZYk29SeY2EHj-2" target="1jI0mvlAZYk29SeY2EHj-19" edge="1">
          <mxGeometry width="50" height="50" relative="1" as="geometry">
            <mxPoint x="240" y="403" as="sourcePoint" />
            <mxPoint x="434" y="230" as="targetPoint" />
          </mxGeometry>
        </mxCell>
        <mxCell id="1jI0mvlAZYk29SeY2EHj-24" value="" style="endArrow=none;dashed=1;html=1;rounded=0;entryX=0.5;entryY=1;entryDx=0;entryDy=0;entryPerimeter=0;" parent="1" source="1jI0mvlAZYk29SeY2EHj-8" target="1jI0mvlAZYk29SeY2EHj-19" edge="1">
          <mxGeometry width="50" height="50" relative="1" as="geometry">
            <mxPoint x="253" y="530" as="sourcePoint" />
            <mxPoint x="444" y="230" as="targetPoint" />
          </mxGeometry>
        </mxCell>
        <mxCell id="1jI0mvlAZYk29SeY2EHj-25" value="" style="endArrow=none;dashed=1;html=1;rounded=0;entryX=0.5;entryY=1;entryDx=0;entryDy=0;entryPerimeter=0;exitX=0.5;exitY=0;exitDx=0;exitDy=0;exitPerimeter=0;" parent="1" source="1jI0mvlAZYk29SeY2EHj-13" target="1jI0mvlAZYk29SeY2EHj-19" edge="1">
          <mxGeometry width="50" height="50" relative="1" as="geometry">
            <mxPoint x="337" y="530" as="sourcePoint" />
            <mxPoint x="444" y="230" as="targetPoint" />
          </mxGeometry>
        </mxCell>
        <mxCell id="1jI0mvlAZYk29SeY2EHj-26" value="" style="endArrow=none;dashed=1;html=1;rounded=0;entryX=0.5;entryY=1;entryDx=0;entryDy=0;entryPerimeter=0;" parent="1" source="1jI0mvlAZYk29SeY2EHj-7" target="1jI0mvlAZYk29SeY2EHj-19" edge="1">
          <mxGeometry width="50" height="50" relative="1" as="geometry">
            <mxPoint x="285" y="630" as="sourcePoint" />
            <mxPoint x="444" y="230" as="targetPoint" />
          </mxGeometry>
        </mxCell>
        <mxCell id="1jI0mvlAZYk29SeY2EHj-27" value="" style="endArrow=none;dashed=1;html=1;rounded=0;entryX=0.5;entryY=1;entryDx=0;entryDy=0;entryPerimeter=0;exitX=0.015;exitY=0.015;exitDx=0;exitDy=0;exitPerimeter=0;" parent="1" source="1jI0mvlAZYk29SeY2EHj-5" target="1jI0mvlAZYk29SeY2EHj-19" edge="1">
          <mxGeometry width="50" height="50" relative="1" as="geometry">
            <mxPoint x="569" y="317" as="sourcePoint" />
            <mxPoint x="444" y="230" as="targetPoint" />
          </mxGeometry>
        </mxCell>
        <mxCell id="1jI0mvlAZYk29SeY2EHj-28" value="" style="endArrow=none;html=1;rounded=0;exitX=1;exitY=0.25;exitDx=0;exitDy=0;exitPerimeter=0;" parent="1" source="1jI0mvlAZYk29SeY2EHj-19" target="1jI0mvlAZYk29SeY2EHj-3" edge="1">
          <mxGeometry width="50" height="50" relative="1" as="geometry">
            <mxPoint x="310" y="360" as="sourcePoint" />
            <mxPoint x="360" y="310" as="targetPoint" />
          </mxGeometry>
        </mxCell>
        <mxCell id="1jI0mvlAZYk29SeY2EHj-29" value="Git Repository" style="verticalLabelPosition=bottom;html=1;verticalAlign=top;align=center;strokeColor=none;fillColor=#00BEF2;shape=mxgraph.azure.github_code;pointerEvents=1;" parent="1" vertex="1">
          <mxGeometry x="730" y="84.8" width="50" height="50" as="geometry" />
        </mxCell>
        <mxCell id="1jI0mvlAZYk29SeY2EHj-30" value="Internet" style="verticalLabelPosition=bottom;html=1;verticalAlign=top;align=center;strokeColor=none;fillColor=#00BEF2;shape=mxgraph.azure.cloud_service;" parent="1" vertex="1">
          <mxGeometry x="590" y="55" width="110" height="80" as="geometry" />
        </mxCell>
        <mxCell id="1jI0mvlAZYk29SeY2EHj-31" value="" style="endArrow=classic;startArrow=classic;html=1;rounded=0;entryX=0;entryY=0.5;entryDx=0;entryDy=0;entryPerimeter=0;" parent="1" source="1jI0mvlAZYk29SeY2EHj-3" target="1jI0mvlAZYk29SeY2EHj-29" edge="1">
          <mxGeometry width="50" height="50" relative="1" as="geometry">
            <mxPoint x="310" y="360" as="sourcePoint" />
            <mxPoint x="360" y="310" as="targetPoint" />
          </mxGeometry>
        </mxCell>
        <mxCell id="1jI0mvlAZYk29SeY2EHj-34" value="" style="endArrow=none;html=1;rounded=0;entryX=0.5;entryY=1;entryDx=0;entryDy=0;entryPerimeter=0;" parent="1" source="1jI0mvlAZYk29SeY2EHj-18" target="1jI0mvlAZYk29SeY2EHj-5" edge="1">
          <mxGeometry width="50" height="50" relative="1" as="geometry">
            <mxPoint x="310" y="430" as="sourcePoint" />
            <mxPoint x="360" y="380" as="targetPoint" />
          </mxGeometry>
        </mxCell>
        <mxCell id="1jI0mvlAZYk29SeY2EHj-35" value="&lt;div&gt;EIGRP Name Ynov&lt;br&gt;&lt;/div&gt;&lt;div&gt;AS 1&lt;br&gt;&lt;/div&gt;" style="text;html=1;align=center;verticalAlign=middle;resizable=0;points=[];autosize=1;strokeColor=none;fillColor=none;" parent="1" vertex="1">
          <mxGeometry x="284" y="680" width="130" height="40" as="geometry" />
        </mxCell>
        <mxCell id="1jI0mvlAZYk29SeY2EHj-36" value="&lt;div&gt;EIGRP Name Ynov&lt;br&gt;&lt;/div&gt;&lt;div&gt;AS 2&lt;br&gt;&lt;/div&gt;" style="text;html=1;align=center;verticalAlign=middle;resizable=0;points=[];autosize=1;strokeColor=none;fillColor=none;" parent="1" vertex="1">
          <mxGeometry x="428.8" y="680" width="130" height="40" as="geometry" />
        </mxCell>
        <mxCell id="1jI0mvlAZYk29SeY2EHj-37" value="TOULOUSE" style="text;html=1;align=center;verticalAlign=middle;resizable=0;points=[];autosize=1;strokeColor=none;fillColor=none;fontStyle=1" parent="1" vertex="1">
          <mxGeometry x="90" y="510" width="90" height="30" as="geometry" />
        </mxCell>
        <mxCell id="1jI0mvlAZYk29SeY2EHj-38" value="FILTON" style="text;html=1;align=center;verticalAlign=middle;resizable=0;points=[];autosize=1;strokeColor=none;fillColor=none;fontStyle=1" parent="1" vertex="1">
          <mxGeometry x="450" y="510" width="60" height="30" as="geometry" />
        </mxCell>
        <mxCell id="WEsDLf1hamlWvthp9Y0r-1" value="TOULOUSE&lt;br&gt;AS 65001" style="text;html=1;align=center;verticalAlign=middle;resizable=0;points=[];autosize=1;strokeColor=none;fillColor=none;" parent="1" vertex="1">
          <mxGeometry x="90" y="290" width="90" height="40" as="geometry" />
        </mxCell>
        <mxCell id="2QecjQNAn8WkMO7ziWlw-1" value="FILTON&lt;br&gt;AS 65002" style="text;html=1;align=center;verticalAlign=middle;resizable=0;points=[];autosize=1;strokeColor=none;fillColor=none;" parent="1" vertex="1">
          <mxGeometry x="625" y="290" width="80" height="40" as="geometry" />
        </mxCell>
        <mxCell id="AG8cPLdoDN8dUYRIyJYr-5" value="" style="group" parent="1" connectable="0" vertex="1">
          <mxGeometry x="175.5" y="656.6" width="59.5" height="30" as="geometry" />
        </mxCell>
        <mxCell id="AG8cPLdoDN8dUYRIyJYr-3" value="" style="sketch=0;pointerEvents=1;shadow=0;dashed=0;html=1;strokeColor=#82b366;fillColor=#d5e8d4;labelPosition=center;verticalLabelPosition=bottom;verticalAlign=top;outlineConnect=0;align=center;shape=mxgraph.office.servers.tunnel_straight;" parent="AG8cPLdoDN8dUYRIyJYr-5" vertex="1">
          <mxGeometry y="10.399999999999977" width="59" height="10" as="geometry" />
        </mxCell>
        <mxCell id="AG8cPLdoDN8dUYRIyJYr-4" value="vlan X" style="text;html=1;align=center;verticalAlign=middle;resizable=0;points=[];autosize=1;strokeColor=none;fillColor=none;fontSize=10;" parent="AG8cPLdoDN8dUYRIyJYr-5" vertex="1">
          <mxGeometry x="9.5" width="50" height="30" as="geometry" />
        </mxCell>
        <mxCell id="AG8cPLdoDN8dUYRIyJYr-6" value="" style="group" parent="1" connectable="0" vertex="1">
          <mxGeometry x="200" y="681" width="59" height="30" as="geometry" />
        </mxCell>
        <mxCell id="AG8cPLdoDN8dUYRIyJYr-1" value="" style="sketch=0;pointerEvents=1;shadow=0;dashed=0;html=1;strokeColor=#9673a6;fillColor=#e1d5e7;labelPosition=center;verticalLabelPosition=bottom;verticalAlign=top;outlineConnect=0;align=center;shape=mxgraph.office.servers.tunnel_straight;" parent="AG8cPLdoDN8dUYRIyJYr-6" vertex="1">
          <mxGeometry y="10" width="59" height="10" as="geometry" />
        </mxCell>
        <mxCell id="AG8cPLdoDN8dUYRIyJYr-2" value="vlan Y" style="text;html=1;align=center;verticalAlign=middle;resizable=0;points=[];autosize=1;strokeColor=none;fillColor=none;fontSize=10;" parent="AG8cPLdoDN8dUYRIyJYr-6" vertex="1">
          <mxGeometry x="5" width="50" height="30" as="geometry" />
        </mxCell>
        <mxCell id="AG8cPLdoDN8dUYRIyJYr-7" value="" style="endArrow=none;html=1;rounded=0;exitX=0.967;exitY=0.474;exitDx=0;exitDy=0;exitPerimeter=0;entryX=0.25;entryY=1;entryDx=0;entryDy=0;entryPerimeter=0;" parent="1" source="AG8cPLdoDN8dUYRIyJYr-4" target="1jI0mvlAZYk29SeY2EHj-13" edge="1">
          <mxGeometry width="50" height="50" relative="1" as="geometry">
            <mxPoint x="310" y="610" as="sourcePoint" />
            <mxPoint x="360" y="560" as="targetPoint" />
          </mxGeometry>
        </mxCell>
        <mxCell id="AG8cPLdoDN8dUYRIyJYr-8" value="" style="endArrow=none;html=1;rounded=0;entryX=0.5;entryY=1;entryDx=0;entryDy=0;entryPerimeter=0;" parent="1" source="AG8cPLdoDN8dUYRIyJYr-1" target="1jI0mvlAZYk29SeY2EHj-13" edge="1">
          <mxGeometry width="50" height="50" relative="1" as="geometry">
            <mxPoint x="243" y="681" as="sourcePoint" />
            <mxPoint x="275" y="670" as="targetPoint" />
          </mxGeometry>
        </mxCell>
        <mxCell id="kQEE3g4rlIJSTLsc2CVt-1" value="" style="endArrow=none;dashed=1;html=1;rounded=0;" parent="1" source="1jI0mvlAZYk29SeY2EHj-1" target="1jI0mvlAZYk29SeY2EHj-4" edge="1">
          <mxGeometry width="50" height="50" relative="1" as="geometry">
            <mxPoint x="390" y="430" as="sourcePoint" />
            <mxPoint x="440" y="380" as="targetPoint" />
            <Array as="points">
              <mxPoint x="270" y="430" />
            </Array>
          </mxGeometry>
        </mxCell>
        <mxCell id="kQEE3g4rlIJSTLsc2CVt-2" value="GLBP" style="text;html=1;align=center;verticalAlign=middle;resizable=0;points=[];autosize=1;strokeColor=none;fillColor=none;" parent="1" vertex="1">
          <mxGeometry x="240" y="400" width="60" height="30" as="geometry" />
        </mxCell>
      </root>
    </mxGraphModel>
  </diagram>
  <diagram id="WXvGuOtSFh5bOVdpwyJZ" name="NAC">
    <mxGraphModel dx="1762" dy="825" grid="1" gridSize="10" guides="1" tooltips="1" connect="1" arrows="1" fold="1" page="1" pageScale="1" pageWidth="827" pageHeight="1169" math="0" shadow="0">
      <root>
        <mxCell id="0" />
        <mxCell id="1" parent="0" />
        <mxCell id="hKemg-g-DRQgph8px0Jv-26" value="" style="rounded=1;arcSize=10;dashed=1;strokeColor=#F59D56;fillColor=none;gradientColor=none;dashPattern=8 4;strokeWidth=2;" parent="1" vertex="1">
          <mxGeometry x="320" y="190" width="230" height="100" as="geometry" />
        </mxCell>
        <mxCell id="hKemg-g-DRQgph8px0Jv-10" value="" style="rounded=1;arcSize=10;dashed=1;strokeColor=#F59D56;fillColor=none;gradientColor=none;dashPattern=8 4;strokeWidth=2;" parent="1" vertex="1">
          <mxGeometry x="160" y="310" width="234.75" height="450" as="geometry" />
        </mxCell>
        <mxCell id="hKemg-g-DRQgph8px0Jv-1" value="" style="rounded=1;arcSize=10;dashed=1;strokeColor=#F59D56;fillColor=none;gradientColor=none;dashPattern=8 4;strokeWidth=2;" parent="1" vertex="1">
          <mxGeometry x="532.62" y="315" width="234.75" height="450" as="geometry" />
        </mxCell>
        <mxCell id="fJ2ViWofUPJWG8UK3kS8-1" value="ISE" style="sketch=0;points=[[0.015,0.015,0],[0.985,0.015,0],[0.985,0.985,0],[0.015,0.985,0],[0.25,0,0],[0.5,0,0],[0.75,0,0],[1,0.25,0],[1,0.5,0],[1,0.75,0],[0.75,1,0],[0.5,1,0],[0.25,1,0],[0,0.75,0],[0,0.5,0],[0,0.25,0]];verticalLabelPosition=bottom;html=1;verticalAlign=top;aspect=fixed;align=center;pointerEvents=1;shape=mxgraph.cisco19.rect;prIcon=ise;fillColor=#FAFAFA;strokeColor=#005073;" parent="1" vertex="1">
          <mxGeometry x="570" y="620" width="50" height="50" as="geometry" />
        </mxCell>
        <mxCell id="fJ2ViWofUPJWG8UK3kS8-2" value="AD/DNS/DHCP" style="verticalLabelPosition=bottom;sketch=0;html=1;fillColor=#A153A0;strokeColor=#ffffff;verticalAlign=top;align=center;points=[[0,0.5,0],[0.125,0.25,0],[0.25,0,0],[0.5,0,0],[0.75,0,0],[0.875,0.25,0],[1,0.5,0],[0.875,0.75,0],[0.75,1,0],[0.5,1,0],[0.125,0.75,0]];pointerEvents=1;shape=mxgraph.cisco_safe.compositeIcon;bgIcon=mxgraph.cisco_safe.design.blank_device;resIcon=mxgraph.cisco_safe.design.ms_active_directory_2;" parent="1" vertex="1">
          <mxGeometry x="670" y="620" width="50" height="50" as="geometry" />
        </mxCell>
        <mxCell id="GmY5hjo9ZVTV7viJhm-y-2" value="SW1" style="sketch=0;points=[[0.015,0.015,0],[0.985,0.015,0],[0.985,0.985,0],[0.015,0.985,0],[0.25,0,0],[0.5,0,0],[0.75,0,0],[1,0.25,0],[1,0.5,0],[1,0.75,0],[0.75,1,0],[0.5,1,0],[0.25,1,0],[0,0.75,0],[0,0.5,0],[0,0.25,0]];verticalLabelPosition=top;html=1;verticalAlign=bottom;aspect=fixed;align=center;pointerEvents=1;shape=mxgraph.cisco19.rect;prIcon=l2_switch;fillColor=#FAFAFA;strokeColor=#005073;labelPosition=center;" parent="1" vertex="1">
          <mxGeometry x="630" y="520" width="40" height="40" as="geometry" />
        </mxCell>
        <mxCell id="GmY5hjo9ZVTV7viJhm-y-3" value="R1" style="sketch=0;outlineConnect=0;fontColor=#232F3E;gradientColor=none;fillColor=#8C4FFF;strokeColor=none;dashed=0;verticalLabelPosition=bottom;verticalAlign=top;align=center;html=1;fontSize=12;fontStyle=0;aspect=fixed;pointerEvents=1;shape=mxgraph.aws4.customer_gateway;" parent="1" vertex="1">
          <mxGeometry x="624" y="380" width="50" height="50" as="geometry" />
        </mxCell>
        <mxCell id="GmY5hjo9ZVTV7viJhm-y-4" value="SW1" style="sketch=0;points=[[0.015,0.015,0],[0.985,0.015,0],[0.985,0.985,0],[0.015,0.985,0],[0.25,0,0],[0.5,0,0],[0.75,0,0],[1,0.25,0],[1,0.5,0],[1,0.75,0],[0.75,1,0],[0.5,1,0],[0.25,1,0],[0,0.75,0],[0,0.5,0],[0,0.25,0]];verticalLabelPosition=top;html=1;verticalAlign=bottom;aspect=fixed;align=center;pointerEvents=1;shape=mxgraph.cisco19.rect;prIcon=l2_switch;fillColor=#FAFAFA;strokeColor=#005073;labelPosition=center;" parent="1" vertex="1">
          <mxGeometry x="195" y="490" width="40" height="40" as="geometry" />
        </mxCell>
        <mxCell id="GmY5hjo9ZVTV7viJhm-y-5" value="SW2" style="sketch=0;points=[[0.015,0.015,0],[0.985,0.015,0],[0.985,0.985,0],[0.015,0.985,0],[0.25,0,0],[0.5,0,0],[0.75,0,0],[1,0.25,0],[1,0.5,0],[1,0.75,0],[0.75,1,0],[0.5,1,0],[0.25,1,0],[0,0.75,0],[0,0.5,0],[0,0.25,0]];verticalLabelPosition=top;html=1;verticalAlign=bottom;aspect=fixed;align=center;pointerEvents=1;shape=mxgraph.cisco19.rect;prIcon=l2_switch;fillColor=#FAFAFA;strokeColor=#005073;labelPosition=center;" parent="1" vertex="1">
          <mxGeometry x="309.75" y="490" width="40" height="40" as="geometry" />
        </mxCell>
        <mxCell id="GmY5hjo9ZVTV7viJhm-y-6" value="Rx" style="sketch=0;outlineConnect=0;fontColor=#232F3E;gradientColor=none;fillColor=#8C4FFF;strokeColor=none;dashed=0;verticalLabelPosition=bottom;verticalAlign=top;align=center;html=1;fontSize=12;fontStyle=0;aspect=fixed;pointerEvents=1;shape=mxgraph.aws4.customer_gateway;" parent="1" vertex="1">
          <mxGeometry x="389" y="210" width="50" height="50" as="geometry" />
        </mxCell>
        <mxCell id="GmY5hjo9ZVTV7viJhm-y-7" value="R1" style="sketch=0;outlineConnect=0;fontColor=#232F3E;gradientColor=none;fillColor=#8C4FFF;strokeColor=none;dashed=0;verticalLabelPosition=bottom;verticalAlign=top;align=center;html=1;fontSize=12;fontStyle=0;aspect=fixed;pointerEvents=1;shape=mxgraph.aws4.customer_gateway;" parent="1" vertex="1">
          <mxGeometry x="189" y="380" width="50" height="50" as="geometry" />
        </mxCell>
        <mxCell id="GmY5hjo9ZVTV7viJhm-y-8" value="SW3" style="sketch=0;points=[[0.015,0.015,0],[0.985,0.015,0],[0.985,0.985,0],[0.015,0.985,0],[0.25,0,0],[0.5,0,0],[0.75,0,0],[1,0.25,0],[1,0.5,0],[1,0.75,0],[0.75,1,0],[0.5,1,0],[0.25,1,0],[0,0.75,0],[0,0.5,0],[0,0.25,0]];verticalLabelPosition=top;html=1;verticalAlign=bottom;aspect=fixed;align=center;pointerEvents=1;shape=mxgraph.cisco19.rect;prIcon=l2_switch;fillColor=#FAFAFA;strokeColor=#005073;labelPosition=center;" parent="1" vertex="1">
          <mxGeometry x="257.37" y="585" width="40" height="40" as="geometry" />
        </mxCell>
        <mxCell id="hKemg-g-DRQgph8px0Jv-2" value="" style="endArrow=none;html=1;rounded=0;exitX=0.5;exitY=0;exitDx=0;exitDy=0;exitPerimeter=0;" parent="1" source="GmY5hjo9ZVTV7viJhm-y-2" target="GmY5hjo9ZVTV7viJhm-y-3" edge="1">
          <mxGeometry width="50" height="50" relative="1" as="geometry">
            <mxPoint x="390" y="490" as="sourcePoint" />
            <mxPoint x="440" y="440" as="targetPoint" />
          </mxGeometry>
        </mxCell>
        <mxCell id="hKemg-g-DRQgph8px0Jv-4" value="" style="endArrow=none;html=1;rounded=0;entryX=0.25;entryY=1;entryDx=0;entryDy=0;entryPerimeter=0;" parent="1" source="fJ2ViWofUPJWG8UK3kS8-1" target="GmY5hjo9ZVTV7viJhm-y-2" edge="1">
          <mxGeometry width="50" height="50" relative="1" as="geometry">
            <mxPoint x="640" y="540" as="sourcePoint" />
            <mxPoint x="599" y="470" as="targetPoint" />
          </mxGeometry>
        </mxCell>
        <mxCell id="hKemg-g-DRQgph8px0Jv-5" value="" style="endArrow=none;html=1;rounded=0;entryX=0.5;entryY=1;entryDx=0;entryDy=0;entryPerimeter=0;exitX=0.5;exitY=0;exitDx=0;exitDy=0;exitPerimeter=0;" parent="1" source="fJ2ViWofUPJWG8UK3kS8-2" target="GmY5hjo9ZVTV7viJhm-y-2" edge="1">
          <mxGeometry width="50" height="50" relative="1" as="geometry">
            <mxPoint x="618" y="630" as="sourcePoint" />
            <mxPoint x="650" y="570" as="targetPoint" />
          </mxGeometry>
        </mxCell>
        <mxCell id="hKemg-g-DRQgph8px0Jv-6" value="" style="endArrow=none;html=1;rounded=0;" parent="1" source="GmY5hjo9ZVTV7viJhm-y-3" target="GmY5hjo9ZVTV7viJhm-y-6" edge="1">
          <mxGeometry width="50" height="50" relative="1" as="geometry">
            <mxPoint x="450" y="460" as="sourcePoint" />
            <mxPoint x="500" y="410" as="targetPoint" />
          </mxGeometry>
        </mxCell>
        <mxCell id="hKemg-g-DRQgph8px0Jv-22" value="eBGP" style="edgeLabel;html=1;align=center;verticalAlign=middle;resizable=0;points=[];" parent="hKemg-g-DRQgph8px0Jv-6" connectable="0" vertex="1">
          <mxGeometry x="0.0803" relative="1" as="geometry">
            <mxPoint as="offset" />
          </mxGeometry>
        </mxCell>
        <mxCell id="hKemg-g-DRQgph8px0Jv-8" value="" style="endArrow=none;html=1;rounded=0;" parent="1" source="GmY5hjo9ZVTV7viJhm-y-7" target="GmY5hjo9ZVTV7viJhm-y-6" edge="1">
          <mxGeometry width="50" height="50" relative="1" as="geometry">
            <mxPoint x="450" y="460" as="sourcePoint" />
            <mxPoint x="500" y="410" as="targetPoint" />
          </mxGeometry>
        </mxCell>
        <mxCell id="hKemg-g-DRQgph8px0Jv-21" value="eBGP" style="edgeLabel;html=1;align=center;verticalAlign=middle;resizable=0;points=[];" parent="hKemg-g-DRQgph8px0Jv-8" connectable="0" vertex="1">
          <mxGeometry x="-0.1109" relative="1" as="geometry">
            <mxPoint as="offset" />
          </mxGeometry>
        </mxCell>
        <mxCell id="hKemg-g-DRQgph8px0Jv-11" value="" style="endArrow=none;html=1;rounded=0;exitX=0.5;exitY=0;exitDx=0;exitDy=0;exitPerimeter=0;" parent="1" source="GmY5hjo9ZVTV7viJhm-y-5" target="0tKX5AzxxKbyqJXQ7S8g-1" edge="1">
          <mxGeometry width="50" height="50" relative="1" as="geometry">
            <mxPoint x="450" y="520" as="sourcePoint" />
            <mxPoint x="500" y="470" as="targetPoint" />
          </mxGeometry>
        </mxCell>
        <mxCell id="hKemg-g-DRQgph8px0Jv-12" value="" style="endArrow=none;html=1;rounded=0;exitX=0.5;exitY=0;exitDx=0;exitDy=0;exitPerimeter=0;" parent="1" source="GmY5hjo9ZVTV7viJhm-y-4" target="GmY5hjo9ZVTV7viJhm-y-7" edge="1">
          <mxGeometry width="50" height="50" relative="1" as="geometry">
            <mxPoint x="320" y="500" as="sourcePoint" />
            <mxPoint x="283" y="450" as="targetPoint" />
          </mxGeometry>
        </mxCell>
        <mxCell id="hKemg-g-DRQgph8px0Jv-13" value="" style="endArrow=none;html=1;rounded=0;exitX=0.5;exitY=1;exitDx=0;exitDy=0;exitPerimeter=0;entryX=0.25;entryY=0;entryDx=0;entryDy=0;entryPerimeter=0;" parent="1" source="GmY5hjo9ZVTV7viJhm-y-4" target="GmY5hjo9ZVTV7viJhm-y-8" edge="1">
          <mxGeometry width="50" height="50" relative="1" as="geometry">
            <mxPoint x="210" y="500" as="sourcePoint" />
            <mxPoint x="247" y="450" as="targetPoint" />
          </mxGeometry>
        </mxCell>
        <mxCell id="hKemg-g-DRQgph8px0Jv-14" value="" style="endArrow=none;html=1;rounded=0;exitX=0.75;exitY=0;exitDx=0;exitDy=0;exitPerimeter=0;entryX=0.25;entryY=1;entryDx=0;entryDy=0;entryPerimeter=0;" parent="1" source="GmY5hjo9ZVTV7viJhm-y-8" target="GmY5hjo9ZVTV7viJhm-y-5" edge="1">
          <mxGeometry width="50" height="50" relative="1" as="geometry">
            <mxPoint x="320" y="500" as="sourcePoint" />
            <mxPoint x="283" y="450" as="targetPoint" />
          </mxGeometry>
        </mxCell>
        <mxCell id="hKemg-g-DRQgph8px0Jv-15" value="" style="sketch=0;pointerEvents=1;shadow=0;dashed=0;html=1;strokeColor=#b85450;fillColor=#f8cecc;labelPosition=center;verticalLabelPosition=bottom;verticalAlign=top;outlineConnect=0;align=center;shape=mxgraph.office.servers.tunnel_straight;" parent="1" vertex="1">
          <mxGeometry x="180" y="640" width="59" height="10" as="geometry" />
        </mxCell>
        <mxCell id="hKemg-g-DRQgph8px0Jv-16" value="" style="sketch=0;pointerEvents=1;shadow=0;dashed=0;html=1;strokeColor=#82b366;fillColor=#d5e8d4;labelPosition=center;verticalLabelPosition=bottom;verticalAlign=top;outlineConnect=0;align=center;shape=mxgraph.office.servers.tunnel_straight;" parent="1" vertex="1">
          <mxGeometry x="173" y="660" width="59" height="10" as="geometry" />
        </mxCell>
        <mxCell id="hKemg-g-DRQgph8px0Jv-17" value="" style="sketch=0;pointerEvents=1;shadow=0;dashed=0;html=1;strokeColor=#9673a6;fillColor=#e1d5e7;labelPosition=center;verticalLabelPosition=bottom;verticalAlign=top;outlineConnect=0;align=center;shape=mxgraph.office.servers.tunnel_straight;" parent="1" vertex="1">
          <mxGeometry x="200" y="680" width="59" height="10" as="geometry" />
        </mxCell>
        <mxCell id="hKemg-g-DRQgph8px0Jv-18" value="admin" style="text;html=1;align=center;verticalAlign=middle;resizable=0;points=[];autosize=1;strokeColor=none;fillColor=none;fontSize=10;" parent="1" vertex="1">
          <mxGeometry x="185" y="630" width="50" height="30" as="geometry" />
        </mxCell>
        <mxCell id="hKemg-g-DRQgph8px0Jv-19" value="Network" style="text;html=1;align=center;verticalAlign=middle;resizable=0;points=[];autosize=1;strokeColor=none;fillColor=none;fontSize=10;" parent="1" vertex="1">
          <mxGeometry x="175" y="650" width="60" height="30" as="geometry" />
        </mxCell>
        <mxCell id="hKemg-g-DRQgph8px0Jv-20" value="Infra" style="text;html=1;align=center;verticalAlign=middle;resizable=0;points=[];autosize=1;strokeColor=none;fillColor=none;fontSize=10;" parent="1" vertex="1">
          <mxGeometry x="209.5" y="669" width="40" height="30" as="geometry" />
        </mxCell>
        <mxCell id="hKemg-g-DRQgph8px0Jv-24" value="TOULOUSE&lt;br&gt;AS 65001" style="text;html=1;align=center;verticalAlign=middle;resizable=0;points=[];autosize=1;strokeColor=none;fillColor=none;" parent="1" vertex="1">
          <mxGeometry x="160" y="320" width="90" height="40" as="geometry" />
        </mxCell>
        <mxCell id="hKemg-g-DRQgph8px0Jv-25" value="HAMBOURG&lt;br&gt;AS 65001" style="text;html=1;align=center;verticalAlign=middle;resizable=0;points=[];autosize=1;strokeColor=none;fillColor=none;" parent="1" vertex="1">
          <mxGeometry x="680" y="320" width="90" height="40" as="geometry" />
        </mxCell>
        <mxCell id="hKemg-g-DRQgph8px0Jv-27" value="&lt;div&gt;WAN&lt;/div&gt;&lt;div&gt;AS2&lt;br&gt;&lt;/div&gt;" style="text;html=1;align=center;verticalAlign=middle;resizable=0;points=[];autosize=1;strokeColor=none;fillColor=none;" parent="1" vertex="1">
          <mxGeometry x="480" y="190" width="50" height="40" as="geometry" />
        </mxCell>
        <mxCell id="1iopH_16DAI8Cae5ph6n-1" value="&lt;div&gt;EIGRP Name Ynov&lt;br&gt;&lt;/div&gt;&lt;div&gt;AS 1&lt;br&gt;&lt;/div&gt;" style="text;html=1;align=center;verticalAlign=middle;resizable=0;points=[];autosize=1;strokeColor=none;fillColor=none;" parent="1" vertex="1">
          <mxGeometry x="264.75" y="720" width="130" height="40" as="geometry" />
        </mxCell>
        <mxCell id="1iopH_16DAI8Cae5ph6n-2" value="&lt;div&gt;EIGRP Name Ynov&lt;br&gt;&lt;/div&gt;&lt;div&gt;AS 2&lt;br&gt;&lt;/div&gt;" style="text;html=1;align=center;verticalAlign=middle;resizable=0;points=[];autosize=1;strokeColor=none;fillColor=none;" parent="1" vertex="1">
          <mxGeometry x="540" y="720" width="130" height="40" as="geometry" />
        </mxCell>
        <mxCell id="1iopH_16DAI8Cae5ph6n-5" value="" style="endArrow=none;html=1;rounded=0;entryX=0.25;entryY=1;entryDx=0;entryDy=0;entryPerimeter=0;" parent="1" source="hKemg-g-DRQgph8px0Jv-15" target="GmY5hjo9ZVTV7viJhm-y-8" edge="1">
          <mxGeometry width="50" height="50" relative="1" as="geometry">
            <mxPoint x="490" y="570" as="sourcePoint" />
            <mxPoint x="540" y="520" as="targetPoint" />
            <Array as="points">
              <mxPoint x="245" y="643" />
            </Array>
          </mxGeometry>
        </mxCell>
        <mxCell id="1iopH_16DAI8Cae5ph6n-6" value="" style="endArrow=none;html=1;rounded=0;entryX=0.5;entryY=1;entryDx=0;entryDy=0;entryPerimeter=0;exitX=0.96;exitY=0.558;exitDx=0;exitDy=0;exitPerimeter=0;" parent="1" source="hKemg-g-DRQgph8px0Jv-19" target="GmY5hjo9ZVTV7viJhm-y-8" edge="1">
          <mxGeometry width="50" height="50" relative="1" as="geometry">
            <mxPoint x="249" y="653" as="sourcePoint" />
            <mxPoint x="255" y="635" as="targetPoint" />
            <Array as="points">
              <mxPoint x="255" y="653" />
            </Array>
          </mxGeometry>
        </mxCell>
        <mxCell id="1iopH_16DAI8Cae5ph6n-7" value="" style="endArrow=none;html=1;rounded=0;entryX=0.728;entryY=1.005;entryDx=0;entryDy=0;entryPerimeter=0;" parent="1" source="hKemg-g-DRQgph8px0Jv-17" target="GmY5hjo9ZVTV7viJhm-y-8" edge="1">
          <mxGeometry width="50" height="50" relative="1" as="geometry">
            <mxPoint x="243" y="677" as="sourcePoint" />
            <mxPoint x="265" y="635" as="targetPoint" />
            <Array as="points">
              <mxPoint x="265" y="663" />
            </Array>
          </mxGeometry>
        </mxCell>
        <mxCell id="0tKX5AzxxKbyqJXQ7S8g-1" value="R2" style="sketch=0;outlineConnect=0;fontColor=#232F3E;gradientColor=none;fillColor=#8C4FFF;strokeColor=none;dashed=0;verticalLabelPosition=bottom;verticalAlign=top;align=center;html=1;fontSize=12;fontStyle=0;aspect=fixed;pointerEvents=1;shape=mxgraph.aws4.customer_gateway;" vertex="1" parent="1">
          <mxGeometry x="304.75" y="380" width="50" height="50" as="geometry" />
        </mxCell>
        <mxCell id="0tKX5AzxxKbyqJXQ7S8g-2" value="" style="endArrow=none;html=1;rounded=0;" edge="1" parent="1" source="0tKX5AzxxKbyqJXQ7S8g-1" target="GmY5hjo9ZVTV7viJhm-y-6">
          <mxGeometry width="50" height="50" relative="1" as="geometry">
            <mxPoint x="320" y="500" as="sourcePoint" />
            <mxPoint x="430" y="350" as="targetPoint" />
          </mxGeometry>
        </mxCell>
        <mxCell id="0tKX5AzxxKbyqJXQ7S8g-5" value="eBGP" style="edgeLabel;html=1;align=center;verticalAlign=middle;resizable=0;points=[];" vertex="1" connectable="0" parent="0tKX5AzxxKbyqJXQ7S8g-2">
          <mxGeometry x="-0.2288" y="1" relative="1" as="geometry">
            <mxPoint as="offset" />
          </mxGeometry>
        </mxCell>
        <mxCell id="0tKX5AzxxKbyqJXQ7S8g-3" value="" style="endArrow=none;dashed=1;html=1;rounded=0;" edge="1" parent="1">
          <mxGeometry width="50" height="50" relative="1" as="geometry">
            <mxPoint x="227.38" y="426.5" as="sourcePoint" />
            <mxPoint x="327.38" y="426.5" as="targetPoint" />
            <Array as="points">
              <mxPoint x="277.38" y="443.5" />
            </Array>
          </mxGeometry>
        </mxCell>
        <mxCell id="0tKX5AzxxKbyqJXQ7S8g-4" value="HSRP" style="edgeLabel;html=1;align=center;verticalAlign=middle;resizable=0;points=[];" connectable="0" vertex="1" parent="0tKX5AzxxKbyqJXQ7S8g-3">
          <mxGeometry x="-0.2617" relative="1" as="geometry">
            <mxPoint x="13" y="-16" as="offset" />
          </mxGeometry>
        </mxCell>
      </root>
    </mxGraphModel>
  </diagram>
  <diagram id="nLNHjeZtlWw-TyzoXE86" name="MPLS">
    <mxGraphModel grid="1" page="1" gridSize="10" guides="1" tooltips="1" connect="1" arrows="1" fold="1" pageScale="1" pageWidth="827" pageHeight="1169" math="0" shadow="0">
      <root>
        <mxCell id="0" />
        <mxCell id="1" parent="0" />
        <mxCell id="Vur4-QEuac54C5mixKrJ-10" value="Site 1" style="fillColor=none;strokeColor=#147EBA;dashed=1;verticalAlign=top;fontStyle=0;fontColor=#147EBA;whiteSpace=wrap;html=1;strokeWidth=3;" parent="1" vertex="1">
          <mxGeometry x="550" y="160" width="260" height="147.5" as="geometry" />
        </mxCell>
        <mxCell id="Vur4-QEuac54C5mixKrJ-11" value="Service Provider&lt;br&gt;MPLS core" style="fillColor=#f8cecc;strokeColor=#b85450;dashed=1;verticalAlign=top;fontStyle=0;whiteSpace=wrap;html=1;strokeWidth=3;" parent="1" vertex="1">
          <mxGeometry x="310" y="160" width="220" height="150" as="geometry" />
        </mxCell>
        <mxCell id="Vur4-QEuac54C5mixKrJ-7" value="Site 1" style="fillColor=none;strokeColor=#147EBA;dashed=1;verticalAlign=top;fontStyle=0;fontColor=#147EBA;whiteSpace=wrap;html=1;strokeWidth=3;" parent="1" vertex="1">
          <mxGeometry x="30" y="100" width="260" height="130" as="geometry" />
        </mxCell>
        <mxCell id="Vur4-QEuac54C5mixKrJ-8" value="Site 2" style="fillColor=none;strokeColor=#67AB9F;dashed=1;verticalAlign=top;fontStyle=0;fontColor=#147EBA;whiteSpace=wrap;html=1;strokeWidth=3;" parent="1" vertex="1">
          <mxGeometry x="30" y="250" width="260" height="130" as="geometry" />
        </mxCell>
        <mxCell id="Vur4-QEuac54C5mixKrJ-1" value="PE1" style="sketch=0;outlineConnect=0;fontColor=#232F3E;gradientColor=none;fillColor=#8C4FFF;strokeColor=none;dashed=0;verticalLabelPosition=bottom;verticalAlign=top;align=center;html=1;fontSize=12;fontStyle=0;aspect=fixed;pointerEvents=1;shape=mxgraph.aws4.customer_gateway;" parent="1" vertex="1">
          <mxGeometry x="280" y="210" width="50" height="50" as="geometry" />
        </mxCell>
        <mxCell id="Vur4-QEuac54C5mixKrJ-2" value="P" style="sketch=0;outlineConnect=0;fontColor=#232F3E;gradientColor=none;fillColor=#8C4FFF;strokeColor=none;dashed=0;verticalLabelPosition=bottom;verticalAlign=top;align=center;html=1;fontSize=12;fontStyle=0;aspect=fixed;pointerEvents=1;shape=mxgraph.aws4.customer_gateway;" parent="1" vertex="1">
          <mxGeometry x="400" y="210" width="50" height="50" as="geometry" />
        </mxCell>
        <mxCell id="Vur4-QEuac54C5mixKrJ-3" value="PE2" style="sketch=0;outlineConnect=0;fontColor=#232F3E;gradientColor=none;fillColor=#8C4FFF;strokeColor=none;dashed=0;verticalLabelPosition=bottom;verticalAlign=top;align=center;html=1;fontSize=12;fontStyle=0;aspect=fixed;pointerEvents=1;shape=mxgraph.aws4.customer_gateway;" parent="1" vertex="1">
          <mxGeometry x="510" y="210" width="50" height="50" as="geometry" />
        </mxCell>
        <mxCell id="Vur4-QEuac54C5mixKrJ-4" value="CE1" style="sketch=0;outlineConnect=0;fontColor=#232F3E;gradientColor=none;fillColor=#8C4FFF;strokeColor=none;dashed=0;verticalLabelPosition=bottom;verticalAlign=top;align=center;html=1;fontSize=12;fontStyle=0;aspect=fixed;pointerEvents=1;shape=mxgraph.aws4.customer_gateway;" parent="1" vertex="1">
          <mxGeometry x="160" y="130" width="50" height="50" as="geometry" />
        </mxCell>
        <mxCell id="Vur4-QEuac54C5mixKrJ-5" value="CE2" style="sketch=0;outlineConnect=0;fontColor=#232F3E;gradientColor=none;fillColor=#8C4FFF;strokeColor=none;dashed=0;verticalLabelPosition=bottom;verticalAlign=top;align=center;html=1;fontSize=12;fontStyle=0;aspect=fixed;pointerEvents=1;shape=mxgraph.aws4.customer_gateway;" parent="1" vertex="1">
          <mxGeometry x="160" y="300" width="50" height="50" as="geometry" />
        </mxCell>
        <mxCell id="Vur4-QEuac54C5mixKrJ-6" value="CE1" style="sketch=0;outlineConnect=0;fontColor=#232F3E;gradientColor=none;fillColor=#8C4FFF;strokeColor=none;dashed=0;verticalLabelPosition=bottom;verticalAlign=top;align=center;html=1;fontSize=12;fontStyle=0;aspect=fixed;pointerEvents=1;shape=mxgraph.aws4.customer_gateway;" parent="1" vertex="1">
          <mxGeometry x="640" y="210" width="50" height="50" as="geometry" />
        </mxCell>
        <mxCell id="Vur4-QEuac54C5mixKrJ-9" value="&lt;div&gt;AD/DNS&lt;/div&gt;&lt;div&gt;/DHCP&lt;br&gt;&lt;/div&gt;" style="verticalLabelPosition=bottom;sketch=0;html=1;fillColor=#A153A0;strokeColor=#ffffff;verticalAlign=top;align=center;points=[[0,0.5,0],[0.125,0.25,0],[0.25,0,0],[0.5,0,0],[0.75,0,0],[0.875,0.25,0],[1,0.5,0],[0.875,0.75,0],[0.75,1,0],[0.5,1,0],[0.125,0.75,0]];pointerEvents=1;shape=mxgraph.cisco_safe.compositeIcon;bgIcon=mxgraph.cisco_safe.design.blank_device;resIcon=mxgraph.cisco_safe.design.ms_active_directory_2;" parent="1" vertex="1">
          <mxGeometry x="750" y="220" width="50" height="45" as="geometry" />
        </mxCell>
        <mxCell id="Vur4-QEuac54C5mixKrJ-12" value="" style="endArrow=none;html=1;rounded=0;" parent="1" source="Vur4-QEuac54C5mixKrJ-5" target="Vur4-QEuac54C5mixKrJ-1" edge="1">
          <mxGeometry width="50" height="50" relative="1" as="geometry">
            <mxPoint x="390" y="380" as="sourcePoint" />
            <mxPoint x="440" y="320" as="targetPoint" />
          </mxGeometry>
        </mxCell>
        <mxCell id="Vur4-QEuac54C5mixKrJ-23" value="eBGP" style="edgeLabel;html=1;align=center;verticalAlign=middle;resizable=0;points=[];" parent="Vur4-QEuac54C5mixKrJ-12" connectable="0" vertex="1">
          <mxGeometry x="0.0183" y="-1" relative="1" as="geometry">
            <mxPoint x="-1" as="offset" />
          </mxGeometry>
        </mxCell>
        <mxCell id="Vur4-QEuac54C5mixKrJ-13" value="" style="endArrow=none;html=1;rounded=0;" parent="1" source="Vur4-QEuac54C5mixKrJ-4" target="Vur4-QEuac54C5mixKrJ-1" edge="1">
          <mxGeometry width="50" height="50" relative="1" as="geometry">
            <mxPoint x="220" y="316" as="sourcePoint" />
            <mxPoint x="290" y="264" as="targetPoint" />
          </mxGeometry>
        </mxCell>
        <mxCell id="Vur4-QEuac54C5mixKrJ-22" value="eBGP" style="edgeLabel;html=1;align=center;verticalAlign=middle;resizable=0;points=[];" parent="Vur4-QEuac54C5mixKrJ-13" connectable="0" vertex="1">
          <mxGeometry x="-0.0264" y="-2" relative="1" as="geometry">
            <mxPoint as="offset" />
          </mxGeometry>
        </mxCell>
        <mxCell id="Vur4-QEuac54C5mixKrJ-14" value="" style="endArrow=none;html=1;rounded=0;" parent="1" source="Vur4-QEuac54C5mixKrJ-1" target="Vur4-QEuac54C5mixKrJ-2" edge="1">
          <mxGeometry width="50" height="50" relative="1" as="geometry">
            <mxPoint x="220" y="182" as="sourcePoint" />
            <mxPoint x="290" y="228" as="targetPoint" />
          </mxGeometry>
        </mxCell>
        <mxCell id="Vur4-QEuac54C5mixKrJ-15" value="" style="endArrow=none;html=1;rounded=0;" parent="1" source="Vur4-QEuac54C5mixKrJ-2" target="Vur4-QEuac54C5mixKrJ-3" edge="1">
          <mxGeometry width="50" height="50" relative="1" as="geometry">
            <mxPoint x="340" y="245" as="sourcePoint" />
            <mxPoint x="410" y="245" as="targetPoint" />
          </mxGeometry>
        </mxCell>
        <mxCell id="Vur4-QEuac54C5mixKrJ-16" value="" style="endArrow=none;html=1;rounded=0;" parent="1" source="Vur4-QEuac54C5mixKrJ-3" target="Vur4-QEuac54C5mixKrJ-6" edge="1">
          <mxGeometry width="50" height="50" relative="1" as="geometry">
            <mxPoint x="460" y="245" as="sourcePoint" />
            <mxPoint x="520" y="245" as="targetPoint" />
          </mxGeometry>
        </mxCell>
        <mxCell id="A5bFC8arSgh9YClThB-M-7" value="eBGP" style="edgeLabel;html=1;align=center;verticalAlign=middle;resizable=0;points=[];" parent="Vur4-QEuac54C5mixKrJ-16" connectable="0" vertex="1">
          <mxGeometry x="-0.2" relative="1" as="geometry">
            <mxPoint as="offset" />
          </mxGeometry>
        </mxCell>
        <mxCell id="Vur4-QEuac54C5mixKrJ-17" value="" style="endArrow=none;html=1;rounded=0;entryX=0;entryY=0.5;entryDx=0;entryDy=0;entryPerimeter=0;" parent="1" source="Vur4-QEuac54C5mixKrJ-6" target="Vur4-QEuac54C5mixKrJ-9" edge="1">
          <mxGeometry width="50" height="50" relative="1" as="geometry">
            <mxPoint x="570" y="245" as="sourcePoint" />
            <mxPoint x="650" y="245" as="targetPoint" />
          </mxGeometry>
        </mxCell>
        <mxCell id="Vur4-QEuac54C5mixKrJ-18" value="" style="aspect=fixed;sketch=0;html=1;dashed=0;whitespace=wrap;fillColor=#2875E2;strokeColor=#ffffff;points=[[0.005,0.63,0],[0.1,0.2,0],[0.9,0.2,0],[0.5,0,0],[0.995,0.63,0],[0.72,0.99,0],[0.5,1,0],[0.28,0.99,0]];shape=mxgraph.kubernetes.icon2;prIcon=user" parent="1" vertex="1">
          <mxGeometry x="60" y="132" width="50" height="48" as="geometry" />
        </mxCell>
        <mxCell id="Vur4-QEuac54C5mixKrJ-19" value="" style="aspect=fixed;sketch=0;html=1;dashed=0;whitespace=wrap;fillColor=#d5e8d4;strokeColor=#82b366;points=[[0.005,0.63,0],[0.1,0.2,0],[0.9,0.2,0],[0.5,0,0],[0.995,0.63,0],[0.72,0.99,0],[0.5,1,0],[0.28,0.99,0]];shape=mxgraph.kubernetes.icon2;prIcon=user" parent="1" vertex="1">
          <mxGeometry x="60" y="302" width="50" height="48" as="geometry" />
        </mxCell>
        <mxCell id="Vur4-QEuac54C5mixKrJ-21" value="" style="endArrow=none;html=1;rounded=0;exitX=0.995;exitY=0.63;exitDx=0;exitDy=0;exitPerimeter=0;" parent="1" source="Vur4-QEuac54C5mixKrJ-18" target="Vur4-QEuac54C5mixKrJ-4" edge="1">
          <mxGeometry width="50" height="50" relative="1" as="geometry">
            <mxPoint x="390" y="370" as="sourcePoint" />
            <mxPoint x="440" y="320" as="targetPoint" />
          </mxGeometry>
        </mxCell>
        <mxCell id="Vur4-QEuac54C5mixKrJ-24" value="" style="endArrow=none;html=1;rounded=0;exitX=0.995;exitY=0.63;exitDx=0;exitDy=0;exitPerimeter=0;" parent="1" source="Vur4-QEuac54C5mixKrJ-19" target="Vur4-QEuac54C5mixKrJ-5" edge="1">
          <mxGeometry width="50" height="50" relative="1" as="geometry">
            <mxPoint x="120" y="172" as="sourcePoint" />
            <mxPoint x="170" y="167" as="targetPoint" />
          </mxGeometry>
        </mxCell>
        <mxCell id="A5bFC8arSgh9YClThB-M-3" value="OSPF Area 0" style="text;html=1;align=center;verticalAlign=middle;resizable=0;points=[];autosize=1;strokeColor=none;fillColor=none;" parent="1" vertex="1">
          <mxGeometry x="440" y="280" width="90" height="30" as="geometry" />
        </mxCell>
        <mxCell id="A5bFC8arSgh9YClThB-M-4" value="Static" style="text;html=1;align=center;verticalAlign=middle;resizable=0;points=[];autosize=1;strokeColor=none;fillColor=none;" parent="1" vertex="1">
          <mxGeometry x="30" y="100" width="50" height="30" as="geometry" />
        </mxCell>
        <mxCell id="A5bFC8arSgh9YClThB-M-5" value="Static" style="text;html=1;align=center;verticalAlign=middle;resizable=0;points=[];autosize=1;strokeColor=none;fillColor=none;" parent="1" vertex="1">
          <mxGeometry x="30" y="350" width="50" height="30" as="geometry" />
        </mxCell>
        <mxCell id="A5bFC8arSgh9YClThB-M-6" value="Static" style="text;html=1;align=center;verticalAlign=middle;resizable=0;points=[];autosize=1;strokeColor=none;fillColor=none;" parent="1" vertex="1">
          <mxGeometry x="550" y="280" width="50" height="30" as="geometry" />
        </mxCell>
        <mxCell id="ZUYQFjxbq2AuXpsZcd_0-1" value="rd1:1" style="text;html=1;align=center;verticalAlign=middle;resizable=0;points=[];autosize=1;strokeColor=none;fillColor=none;" parent="1" vertex="1">
          <mxGeometry x="240" y="100" width="50" height="30" as="geometry" />
        </mxCell>
        <mxCell id="ZUYQFjxbq2AuXpsZcd_0-2" value="rd1:1" style="text;html=1;align=center;verticalAlign=middle;resizable=0;points=[];autosize=1;strokeColor=none;fillColor=none;" parent="1" vertex="1">
          <mxGeometry x="550" y="158" width="50" height="30" as="geometry" />
        </mxCell>
        <mxCell id="ZUYQFjxbq2AuXpsZcd_0-3" value="rd2:2" style="text;html=1;align=center;verticalAlign=middle;resizable=0;points=[];autosize=1;strokeColor=none;fillColor=none;" parent="1" vertex="1">
          <mxGeometry x="240" y="350" width="50" height="30" as="geometry" />
        </mxCell>
        <mxCell id="04pQ7f0MAf-GLKcGf6SQ-1" value="AS1" style="text;html=1;align=center;verticalAlign=middle;resizable=0;points=[];autosize=1;strokeColor=none;fillColor=none;" vertex="1" parent="1">
          <mxGeometry x="330" y="280" width="50" height="30" as="geometry" />
        </mxCell>
        <mxCell id="04pQ7f0MAf-GLKcGf6SQ-2" value="AS65001" style="text;html=1;align=center;verticalAlign=middle;resizable=0;points=[];autosize=1;strokeColor=none;fillColor=none;" vertex="1" parent="1">
          <mxGeometry x="30" y="200" width="70" height="30" as="geometry" />
        </mxCell>
        <mxCell id="04pQ7f0MAf-GLKcGf6SQ-3" value="AS65002" style="text;html=1;align=center;verticalAlign=middle;resizable=0;points=[];autosize=1;strokeColor=none;fillColor=none;" vertex="1" parent="1">
          <mxGeometry x="30" y="250" width="70" height="30" as="geometry" />
        </mxCell>
        <mxCell id="04pQ7f0MAf-GLKcGf6SQ-4" value="AS65003" style="text;html=1;align=center;verticalAlign=middle;resizable=0;points=[];autosize=1;strokeColor=none;fillColor=none;" vertex="1" parent="1">
          <mxGeometry x="740" y="160" width="70" height="30" as="geometry" />
        </mxCell>
      </root>
    </mxGraphModel>
  </diagram>
  <diagram id="vFiNRcRizDodWonVCuFt" name="SD-WAN">
    <mxGraphModel grid="1" page="1" gridSize="10" guides="1" tooltips="1" connect="1" arrows="1" fold="1" pageScale="1" pageWidth="827" pageHeight="1169" math="0" shadow="0">
      <root>
        <mxCell id="0" />
        <mxCell id="1" parent="0" />
        <mxCell id="gRV905XvRk6WRxxYlm5W-23" value="" style="rounded=1;arcSize=10;dashed=1;strokeColor=#F59D56;fillColor=none;gradientColor=none;dashPattern=8 4;strokeWidth=2;" parent="1" vertex="1">
          <mxGeometry x="432" y="600" width="238" height="330" as="geometry" />
        </mxCell>
        <mxCell id="gRV905XvRk6WRxxYlm5W-22" value="" style="rounded=1;arcSize=10;dashed=1;strokeColor=#F59D56;fillColor=none;gradientColor=none;dashPattern=8 4;strokeWidth=2;" parent="1" vertex="1">
          <mxGeometry x="120" y="600" width="207.38" height="330" as="geometry" />
        </mxCell>
        <mxCell id="gRV905XvRk6WRxxYlm5W-24" value="" style="rounded=1;arcSize=10;dashed=1;strokeColor=#F59D56;fillColor=none;gradientColor=none;dashPattern=8 4;strokeWidth=2;" parent="1" vertex="1">
          <mxGeometry x="240" y="80" width="280" height="340" as="geometry" />
        </mxCell>
        <mxCell id="gRV905XvRk6WRxxYlm5W-1" value="vBond" style="sketch=0;points=[[0.5,0,0],[1,0.5,0],[0.5,1,0],[0,0.5,0],[0.145,0.145,0],[0.8555,0.145,0],[0.855,0.8555,0],[0.145,0.855,0]];verticalLabelPosition=top;html=1;verticalAlign=bottom;aspect=fixed;align=center;pointerEvents=1;shape=mxgraph.cisco19.rect;prIcon=vbond;fillColor=#FAFAFA;strokeColor=#005073;labelPosition=center;" parent="1" vertex="1">
          <mxGeometry x="280" y="120" width="50" height="50" as="geometry" />
        </mxCell>
        <mxCell id="gRV905XvRk6WRxxYlm5W-2" value="&lt;div&gt;vManage&lt;/div&gt;" style="sketch=0;points=[[0.5,0,0],[1,0.5,0],[0.5,1,0],[0,0.5,0],[0.145,0.145,0],[0.8555,0.145,0],[0.855,0.8555,0],[0.145,0.855,0]];verticalLabelPosition=top;html=1;verticalAlign=bottom;aspect=fixed;align=center;pointerEvents=1;shape=mxgraph.cisco19.rect;prIcon=vmanage;fillColor=#FAFAFA;strokeColor=#005073;labelPosition=center;" parent="1" vertex="1">
          <mxGeometry x="360" y="120" width="50" height="50" as="geometry" />
        </mxCell>
        <mxCell id="gRV905XvRk6WRxxYlm5W-3" value="vSmart" style="sketch=0;points=[[0.5,0,0],[1,0.5,0],[0.5,1,0],[0,0.5,0],[0.145,0.145,0],[0.8555,0.145,0],[0.855,0.8555,0],[0.145,0.855,0]];verticalLabelPosition=top;html=1;verticalAlign=bottom;aspect=fixed;align=center;pointerEvents=1;shape=mxgraph.cisco19.rect;prIcon=vsmart;fillColor=#FAFAFA;strokeColor=#005073;labelPosition=center;" parent="1" vertex="1">
          <mxGeometry x="450" y="120" width="50" height="50" as="geometry" />
        </mxCell>
        <mxCell id="gRV905XvRk6WRxxYlm5W-5" value="vEdge2" style="sketch=0;points=[[0.015,0.015,0],[0.985,0.015,0],[0.985,0.985,0],[0.015,0.985,0],[0.25,0,0],[0.5,0,0],[0.75,0,0],[1,0.25,0],[1,0.5,0],[1,0.75,0],[0.75,1,0],[0.5,1,0],[0.25,1,0],[0,0.75,0],[0,0.5,0],[0,0.25,0]];verticalLabelPosition=bottom;html=1;verticalAlign=top;aspect=fixed;align=center;pointerEvents=1;shape=mxgraph.cisco19.rect;prIcon=l3_switch;fillColor=#FAFAFA;strokeColor=#005073;" parent="1" vertex="1">
          <mxGeometry x="480" y="620" width="50" height="50" as="geometry" />
        </mxCell>
        <mxCell id="gRV905XvRk6WRxxYlm5W-6" value="SW1" style="sketch=0;points=[[0.015,0.015,0],[0.985,0.015,0],[0.985,0.985,0],[0.015,0.985,0],[0.25,0,0],[0.5,0,0],[0.75,0,0],[1,0.25,0],[1,0.5,0],[1,0.75,0],[0.75,1,0],[0.5,1,0],[0.25,1,0],[0,0.75,0],[0,0.5,0],[0,0.25,0]];verticalLabelPosition=bottom;html=1;verticalAlign=top;aspect=fixed;align=center;pointerEvents=1;shape=mxgraph.cisco19.rect;prIcon=l2_switch;fillColor=#FAFAFA;strokeColor=#005073;" parent="1" vertex="1">
          <mxGeometry x="360" y="240" width="50" height="50" as="geometry" />
        </mxCell>
        <mxCell id="gRV905XvRk6WRxxYlm5W-7" value="R1" style="sketch=0;outlineConnect=0;fontColor=#232F3E;gradientColor=none;fillColor=#8C4FFF;strokeColor=none;dashed=0;verticalLabelPosition=bottom;verticalAlign=top;align=center;html=1;fontSize=12;fontStyle=0;aspect=fixed;pointerEvents=1;shape=mxgraph.aws4.customer_gateway;" parent="1" vertex="1">
          <mxGeometry x="360" y="340" width="50" height="50" as="geometry" />
        </mxCell>
        <mxCell id="gRV905XvRk6WRxxYlm5W-9" value="Internet" style="sketch=0;outlineConnect=0;fontColor=#232F3E;gradientColor=none;fillColor=#8C4FFF;strokeColor=none;dashed=0;verticalLabelPosition=bottom;verticalAlign=top;align=center;html=1;fontSize=12;fontStyle=0;aspect=fixed;pointerEvents=1;shape=mxgraph.aws4.customer_gateway;" parent="1" vertex="1">
          <mxGeometry x="230" y="450" width="50" height="50" as="geometry" />
        </mxCell>
        <mxCell id="gRV905XvRk6WRxxYlm5W-10" value="MPLS" style="sketch=0;outlineConnect=0;fontColor=#232F3E;gradientColor=none;fillColor=#8C4FFF;strokeColor=none;dashed=0;verticalLabelPosition=bottom;verticalAlign=top;align=center;html=1;fontSize=12;fontStyle=0;aspect=fixed;pointerEvents=1;shape=mxgraph.aws4.customer_gateway;" parent="1" vertex="1">
          <mxGeometry x="480" y="450" width="50" height="50" as="geometry" />
        </mxCell>
        <mxCell id="gRV905XvRk6WRxxYlm5W-11" value="vEdge1" style="sketch=0;points=[[0.015,0.015,0],[0.985,0.015,0],[0.985,0.985,0],[0.015,0.985,0],[0.25,0,0],[0.5,0,0],[0.75,0,0],[1,0.25,0],[1,0.5,0],[1,0.75,0],[0.75,1,0],[0.5,1,0],[0.25,1,0],[0,0.75,0],[0,0.5,0],[0,0.25,0]];verticalLabelPosition=bottom;html=1;verticalAlign=top;aspect=fixed;align=center;pointerEvents=1;shape=mxgraph.cisco19.rect;prIcon=l3_switch;fillColor=#FAFAFA;strokeColor=#005073;" parent="1" vertex="1">
          <mxGeometry x="230" y="620" width="50" height="50" as="geometry" />
        </mxCell>
        <mxCell id="gRV905XvRk6WRxxYlm5W-12" value="" style="endArrow=none;html=1;rounded=0;" parent="1" source="gRV905XvRk6WRxxYlm5W-11" target="gRV905XvRk6WRxxYlm5W-9" edge="1">
          <mxGeometry width="50" height="50" relative="1" as="geometry">
            <mxPoint x="110" y="680" as="sourcePoint" />
            <mxPoint x="160" y="630" as="targetPoint" />
          </mxGeometry>
        </mxCell>
        <mxCell id="voLjTsG5meQ5Gq9k6FLp-5" value="eBGP" style="edgeLabel;html=1;align=center;verticalAlign=middle;resizable=0;points=[];" parent="gRV905XvRk6WRxxYlm5W-12" connectable="0" vertex="1">
          <mxGeometry x="-0.0667" y="-3" relative="1" as="geometry">
            <mxPoint as="offset" />
          </mxGeometry>
        </mxCell>
        <mxCell id="gRV905XvRk6WRxxYlm5W-13" value="" style="endArrow=none;html=1;rounded=0;" parent="1" source="gRV905XvRk6WRxxYlm5W-9" target="gRV905XvRk6WRxxYlm5W-7" edge="1">
          <mxGeometry width="50" height="50" relative="1" as="geometry">
            <mxPoint x="265" y="630" as="sourcePoint" />
            <mxPoint x="265" y="510" as="targetPoint" />
          </mxGeometry>
        </mxCell>
        <mxCell id="voLjTsG5meQ5Gq9k6FLp-8" value="eBGP" style="edgeLabel;html=1;align=center;verticalAlign=middle;resizable=0;points=[];" parent="gRV905XvRk6WRxxYlm5W-13" connectable="0" vertex="1">
          <mxGeometry x="0.0392" y="1" relative="1" as="geometry">
            <mxPoint as="offset" />
          </mxGeometry>
        </mxCell>
        <mxCell id="gRV905XvRk6WRxxYlm5W-14" value="" style="endArrow=none;html=1;rounded=0;" parent="1" source="gRV905XvRk6WRxxYlm5W-10" target="gRV905XvRk6WRxxYlm5W-7" edge="1">
          <mxGeometry width="50" height="50" relative="1" as="geometry">
            <mxPoint x="275" y="640" as="sourcePoint" />
            <mxPoint x="275" y="520" as="targetPoint" />
          </mxGeometry>
        </mxCell>
        <mxCell id="voLjTsG5meQ5Gq9k6FLp-9" value="eBGP" style="edgeLabel;html=1;align=center;verticalAlign=middle;resizable=0;points=[];" parent="gRV905XvRk6WRxxYlm5W-14" connectable="0" vertex="1">
          <mxGeometry x="-0.4153" y="2" relative="1" as="geometry">
            <mxPoint as="offset" />
          </mxGeometry>
        </mxCell>
        <mxCell id="gRV905XvRk6WRxxYlm5W-15" value="" style="endArrow=none;html=1;rounded=0;" parent="1" source="gRV905XvRk6WRxxYlm5W-11" target="gRV905XvRk6WRxxYlm5W-10" edge="1">
          <mxGeometry width="50" height="50" relative="1" as="geometry">
            <mxPoint x="285" y="650" as="sourcePoint" />
            <mxPoint x="285" y="530" as="targetPoint" />
          </mxGeometry>
        </mxCell>
        <mxCell id="voLjTsG5meQ5Gq9k6FLp-6" value="eBGP" style="edgeLabel;html=1;align=center;verticalAlign=middle;resizable=0;points=[];" parent="gRV905XvRk6WRxxYlm5W-15" connectable="0" vertex="1">
          <mxGeometry x="0.3898" y="-2" relative="1" as="geometry">
            <mxPoint as="offset" />
          </mxGeometry>
        </mxCell>
        <mxCell id="gRV905XvRk6WRxxYlm5W-16" value="" style="endArrow=none;html=1;rounded=0;exitX=0;exitY=0.25;exitDx=0;exitDy=0;exitPerimeter=0;" parent="1" source="gRV905XvRk6WRxxYlm5W-5" target="gRV905XvRk6WRxxYlm5W-9" edge="1">
          <mxGeometry width="50" height="50" relative="1" as="geometry">
            <mxPoint x="295" y="660" as="sourcePoint" />
            <mxPoint x="295" y="540" as="targetPoint" />
          </mxGeometry>
        </mxCell>
        <mxCell id="voLjTsG5meQ5Gq9k6FLp-10" value="eBGP" style="edgeLabel;html=1;align=center;verticalAlign=middle;resizable=0;points=[];" parent="gRV905XvRk6WRxxYlm5W-16" connectable="0" vertex="1">
          <mxGeometry x="0.2064" y="2" relative="1" as="geometry">
            <mxPoint as="offset" />
          </mxGeometry>
        </mxCell>
        <mxCell id="gRV905XvRk6WRxxYlm5W-17" value="" style="endArrow=none;html=1;rounded=0;exitX=0.5;exitY=0;exitDx=0;exitDy=0;exitPerimeter=0;" parent="1" source="gRV905XvRk6WRxxYlm5W-5" target="gRV905XvRk6WRxxYlm5W-10" edge="1">
          <mxGeometry width="50" height="50" relative="1" as="geometry">
            <mxPoint x="305" y="670" as="sourcePoint" />
            <mxPoint x="305" y="550" as="targetPoint" />
          </mxGeometry>
        </mxCell>
        <mxCell id="voLjTsG5meQ5Gq9k6FLp-7" value="eBGP" style="edgeLabel;html=1;align=center;verticalAlign=middle;resizable=0;points=[];" parent="gRV905XvRk6WRxxYlm5W-17" connectable="0" vertex="1">
          <mxGeometry x="-0.0333" y="-2" relative="1" as="geometry">
            <mxPoint as="offset" />
          </mxGeometry>
        </mxCell>
        <mxCell id="gRV905XvRk6WRxxYlm5W-18" value="" style="endArrow=none;html=1;rounded=0;entryX=0.5;entryY=1;entryDx=0;entryDy=0;entryPerimeter=0;exitX=0.25;exitY=0;exitDx=0;exitDy=0;exitPerimeter=0;" parent="1" source="gRV905XvRk6WRxxYlm5W-6" target="gRV905XvRk6WRxxYlm5W-1" edge="1">
          <mxGeometry width="50" height="50" relative="1" as="geometry">
            <mxPoint x="390" y="460" as="sourcePoint" />
            <mxPoint x="440" y="410" as="targetPoint" />
          </mxGeometry>
        </mxCell>
        <mxCell id="gRV905XvRk6WRxxYlm5W-19" value="" style="endArrow=none;html=1;rounded=0;entryX=0.5;entryY=1;entryDx=0;entryDy=0;entryPerimeter=0;exitX=0.5;exitY=0;exitDx=0;exitDy=0;exitPerimeter=0;" parent="1" source="gRV905XvRk6WRxxYlm5W-6" target="gRV905XvRk6WRxxYlm5W-2" edge="1">
          <mxGeometry width="50" height="50" relative="1" as="geometry">
            <mxPoint x="315" y="680" as="sourcePoint" />
            <mxPoint x="315" y="560" as="targetPoint" />
          </mxGeometry>
        </mxCell>
        <mxCell id="gRV905XvRk6WRxxYlm5W-20" value="" style="endArrow=none;html=1;rounded=0;entryX=0.5;entryY=1;entryDx=0;entryDy=0;entryPerimeter=0;exitX=0.75;exitY=0;exitDx=0;exitDy=0;exitPerimeter=0;" parent="1" source="gRV905XvRk6WRxxYlm5W-6" target="gRV905XvRk6WRxxYlm5W-3" edge="1">
          <mxGeometry width="50" height="50" relative="1" as="geometry">
            <mxPoint x="325" y="690" as="sourcePoint" />
            <mxPoint x="325" y="570" as="targetPoint" />
          </mxGeometry>
        </mxCell>
        <mxCell id="gRV905XvRk6WRxxYlm5W-21" value="" style="endArrow=none;html=1;rounded=0;entryX=0.5;entryY=1;entryDx=0;entryDy=0;entryPerimeter=0;" parent="1" source="gRV905XvRk6WRxxYlm5W-7" target="gRV905XvRk6WRxxYlm5W-6" edge="1">
          <mxGeometry width="50" height="50" relative="1" as="geometry">
            <mxPoint x="335" y="700" as="sourcePoint" />
            <mxPoint x="335" y="580" as="targetPoint" />
          </mxGeometry>
        </mxCell>
        <mxCell id="gRV905XvRk6WRxxYlm5W-25" value="SW1" style="sketch=0;points=[[0.015,0.015,0],[0.985,0.015,0],[0.985,0.985,0],[0.015,0.985,0],[0.25,0,0],[0.5,0,0],[0.75,0,0],[1,0.25,0],[1,0.5,0],[1,0.75,0],[0.75,1,0],[0.5,1,0],[0.25,1,0],[0,0.75,0],[0,0.5,0],[0,0.25,0]];verticalLabelPosition=bottom;html=1;verticalAlign=top;aspect=fixed;align=center;pointerEvents=1;shape=mxgraph.cisco19.rect;prIcon=l2_switch;fillColor=#FAFAFA;strokeColor=#005073;" parent="1" vertex="1">
          <mxGeometry x="230.01" y="720" width="50" height="50" as="geometry" />
        </mxCell>
        <mxCell id="gRV905XvRk6WRxxYlm5W-26" value="SW1" style="sketch=0;points=[[0.015,0.015,0],[0.985,0.015,0],[0.985,0.985,0],[0.015,0.985,0],[0.25,0,0],[0.5,0,0],[0.75,0,0],[1,0.25,0],[1,0.5,0],[1,0.75,0],[0.75,1,0],[0.5,1,0],[0.25,1,0],[0,0.75,0],[0,0.5,0],[0,0.25,0]];verticalLabelPosition=bottom;html=1;verticalAlign=top;aspect=fixed;align=center;pointerEvents=1;shape=mxgraph.cisco19.rect;prIcon=l2_switch;fillColor=#FAFAFA;strokeColor=#005073;" parent="1" vertex="1">
          <mxGeometry x="480" y="720" width="50" height="50" as="geometry" />
        </mxCell>
        <mxCell id="voLjTsG5meQ5Gq9k6FLp-1" value="" style="aspect=fixed;sketch=0;html=1;dashed=0;whitespace=wrap;fillColor=#2875E2;strokeColor=#ffffff;points=[[0.005,0.63,0],[0.1,0.2,0],[0.9,0.2,0],[0.5,0,0],[0.995,0.63,0],[0.72,0.99,0],[0.5,1,0],[0.28,0.99,0]];shape=mxgraph.kubernetes.icon2;prIcon=user" parent="1" vertex="1">
          <mxGeometry x="230.01" y="840" width="50" height="48" as="geometry" />
        </mxCell>
        <mxCell id="voLjTsG5meQ5Gq9k6FLp-2" value="" style="aspect=fixed;sketch=0;html=1;dashed=0;whitespace=wrap;fillColor=#2875E2;strokeColor=#ffffff;points=[[0.005,0.63,0],[0.1,0.2,0],[0.9,0.2,0],[0.5,0,0],[0.995,0.63,0],[0.72,0.99,0],[0.5,1,0],[0.28,0.99,0]];shape=mxgraph.kubernetes.icon2;prIcon=user" parent="1" vertex="1">
          <mxGeometry x="480" y="840" width="50" height="48" as="geometry" />
        </mxCell>
        <mxCell id="voLjTsG5meQ5Gq9k6FLp-3" value="" style="endArrow=none;html=1;rounded=0;entryX=0.5;entryY=1;entryDx=0;entryDy=0;entryPerimeter=0;" parent="1" source="gRV905XvRk6WRxxYlm5W-25" target="gRV905XvRk6WRxxYlm5W-11" edge="1">
          <mxGeometry width="50" height="50" relative="1" as="geometry">
            <mxPoint x="340" y="560" as="sourcePoint" />
            <mxPoint x="390" y="510" as="targetPoint" />
          </mxGeometry>
        </mxCell>
        <mxCell id="voLjTsG5meQ5Gq9k6FLp-4" value="" style="endArrow=none;html=1;rounded=0;entryX=0.5;entryY=1;entryDx=0;entryDy=0;entryPerimeter=0;exitX=0.5;exitY=0;exitDx=0;exitDy=0;exitPerimeter=0;" parent="1" source="gRV905XvRk6WRxxYlm5W-26" target="gRV905XvRk6WRxxYlm5W-5" edge="1">
          <mxGeometry width="50" height="50" relative="1" as="geometry">
            <mxPoint x="265" y="730" as="sourcePoint" />
            <mxPoint x="265" y="680" as="targetPoint" />
          </mxGeometry>
        </mxCell>
        <mxCell id="kQmm5CPpQLpyK469STkk-1" value="TOULOUSE&lt;br&gt;AS 65001" style="text;html=1;align=center;verticalAlign=middle;resizable=0;points=[];autosize=1;strokeColor=none;fillColor=none;" parent="1" vertex="1">
          <mxGeometry x="250" y="280" width="90" height="40" as="geometry" />
        </mxCell>
        <mxCell id="kQmm5CPpQLpyK469STkk-2" value="BORDEAUX&lt;br&gt;AS 65002" style="text;html=1;align=center;verticalAlign=middle;resizable=0;points=[];autosize=1;strokeColor=none;fillColor=none;" parent="1" vertex="1">
          <mxGeometry x="130" y="740" width="90" height="40" as="geometry" />
        </mxCell>
        <mxCell id="kQmm5CPpQLpyK469STkk-3" value="PARIS&lt;br&gt;AS 65003" style="text;html=1;align=center;verticalAlign=middle;resizable=0;points=[];autosize=1;strokeColor=none;fillColor=none;" parent="1" vertex="1">
          <mxGeometry x="575" y="725" width="80" height="40" as="geometry" />
        </mxCell>
        <mxCell id="kQmm5CPpQLpyK469STkk-4" value="AS 1" style="text;html=1;align=center;verticalAlign=middle;resizable=0;points=[];autosize=1;strokeColor=none;fillColor=none;" parent="1" vertex="1">
          <mxGeometry x="186" y="460" width="50" height="30" as="geometry" />
        </mxCell>
        <mxCell id="kQmm5CPpQLpyK469STkk-5" value="AS 2" style="text;html=1;align=center;verticalAlign=middle;resizable=0;points=[];autosize=1;strokeColor=none;fillColor=none;" parent="1" vertex="1">
          <mxGeometry x="525" y="460" width="50" height="30" as="geometry" />
        </mxCell>
        <mxCell id="dNPZeqaW1bcHs9pqEe1D-1" value="&lt;div&gt;AD/DNS&lt;/div&gt;&lt;div&gt;/DHCP&lt;br&gt;&lt;/div&gt;" style="verticalLabelPosition=bottom;sketch=0;html=1;fillColor=#A153A0;strokeColor=#ffffff;verticalAlign=top;align=center;points=[[0,0.5,0],[0.125,0.25,0],[0.25,0,0],[0.5,0,0],[0.75,0,0],[0.875,0.25,0],[1,0.5,0],[0.875,0.75,0],[0.75,1,0],[0.5,1,0],[0.125,0.75,0]];pointerEvents=1;shape=mxgraph.cisco_safe.compositeIcon;bgIcon=mxgraph.cisco_safe.design.blank_device;resIcon=mxgraph.cisco_safe.design.ms_active_directory_2;" vertex="1" parent="1">
          <mxGeometry x="460" y="240" width="50" height="45" as="geometry" />
        </mxCell>
        <mxCell id="dNPZeqaW1bcHs9pqEe1D-2" value="" style="endArrow=none;html=1;rounded=0;entryX=0;entryY=0.5;entryDx=0;entryDy=0;entryPerimeter=0;exitX=1;exitY=0.5;exitDx=0;exitDy=0;exitPerimeter=0;" edge="1" parent="1" source="gRV905XvRk6WRxxYlm5W-6" target="dNPZeqaW1bcHs9pqEe1D-1">
          <mxGeometry width="50" height="50" relative="1" as="geometry">
            <mxPoint x="408" y="250" as="sourcePoint" />
            <mxPoint x="485" y="180" as="targetPoint" />
          </mxGeometry>
        </mxCell>
      </root>
    </mxGraphModel>
  </diagram>
</mxfile>
